<?xml version="1.0" encoding="UTF-8" standalone="no"?><!-- Generator: Gravit.io --><svg xmlns="http://www.w3.org/2000/svg" xmlns:xlink="http://www.w3.org/1999/xlink" style="isolation:isolate" viewBox="0 0 128 128" width="128pt" height="128pt"><defs><clipPath id="_clipPath_fL3gu7xAm665ovwPU6Z8JJHv9hndGCn1"><rect width="128" height="128"/></clipPath></defs><g clip-path="url(#_clipPath_fL3gu7xAm665ovwPU6Z8JJHv9hndGCn1)"><path d=" M 82 55.13 C 79.88 55.13 77.84 54.28 76.34 52.78 C 74.84 51.28 74 49.25 74 47.13 C 74 45 74.84 42.97 76.34 41.47 C 77.84 39.97 79.88 39.13 82 39.13 L 122 39.13 L 122 124 L 6 124 L 6 39.13 L 45 39.13 C 47.12 39.13 49.16 39.97 50.66 41.47 C 52.16 42.97 53 45 53 47.13 C 53 49.25 52.16 51.28 50.66 52.78 C 49.16 54.28 47.12 55.13 45 55.13 L 22 55.13 L 22 108 L 106 108 L 106 55.13 L 82 55.13 Z " fill="rgb(255,255,255)"/><path d=" M 71 32.87 L 71 72.88 C 71 75 70.16 77.03 68.66 78.53 C 67.16 80.03 65.12 80.88 63 80.88 C 60.88 80.88 58.84 80.03 57.34 78.53 C 55.84 77.03 55 75 55 72.88 L 55 32.88 L 27.37 32.88 L 57.79 6.8 C 59.24 5.56 61.09 4.88 63 4.88 C 64.91 4.87 66.76 5.56 68.21 6.8 L 98.63 32.87 L 71 32.87 Z  M 55 9" fill-rule="evenodd" fill="rgb(255,255,255)"/></g></svg>