<?xml version="1.0" encoding="UTF-8" standalone="no"?><!-- Generator: Gravit.io --><svg xmlns="http://www.w3.org/2000/svg" xmlns:xlink="http://www.w3.org/1999/xlink" style="isolation:isolate" viewBox="0 0 128 128" width="128pt" height="128pt"><g><path d=" M 12.88 1.696 C 9.458 2.364 5.395 5.397 3.697 8.597 C 1.889 12.02 2 8.375 2 64 C 2 119.097 1.917 115.897 3.558 119.152 C 4.56 121.128 7.231 123.855 9.207 124.912 C 12.63 126.721 8.984 126.61 64.61 126.61 C 120.235 126.61 116.59 126.721 120.013 124.912 C 121.988 123.855 124.66 121.128 125.661 119.152 C 127.303 115.924 127.22 118.373 127.22 71.791 L 127.22 29.078 L 113.362 15.22 L 99.532 1.39 L 56.818 1.418 C 33.333 1.446 13.548 1.557 12.88 1.696 Z  M 85.48 29.217 L 85.48 43.13 L 50.697 43.13 L 15.913 43.13 L 15.913 29.217 L 15.913 15.303 L 50.697 15.303 L 85.48 15.303 L 85.48 29.217 Z  M 69.786 71.652 C 70.676 71.875 72.624 72.654 74.071 73.378 C 76.297 74.463 77.104 75.075 79.247 77.19 C 81.361 79.332 81.974 80.139 83.059 82.366 C 84.84 85.983 85.313 87.931 85.313 91.827 C 85.313 95.722 84.84 97.67 83.059 101.288 C 81.974 103.514 81.361 104.321 79.247 106.463 C 77.104 108.578 76.297 109.19 74.071 110.276 C 70.453 112.057 68.506 112.53 64.61 112.53 C 60.714 112.53 58.766 112.057 55.149 110.276 C 52.923 109.19 52.116 108.578 49.973 106.463 C 47.858 104.321 47.246 103.514 46.161 101.288 C 44.38 97.67 43.907 95.722 43.907 91.827 C 43.907 87.931 44.38 85.983 46.161 82.366 C 48.47 77.663 53.173 73.656 58.349 71.958 C 61.577 70.929 66.335 70.79 69.786 71.652 Z " fill="rgb(255,255,255)"/></g></svg>